/* XPM */
static char *_c6111210e304bb3849f2bddc57affdeG8unuJa1tUT99yxv[] = {
/* columns rows colors chars-per-pixel */
"32 46 162 2 ",
"   c #4C2713",
".  c #4F2913",
"X  c #512A13",
"o  c #562F18",
"O  c #553017",
"+  c #563118",
"@  c #5B341B",
"#  c #5E391F",
"$  c #5E3C23",
"%  c #623D23",
"&  c #5F4227",
"*  c #644126",
"=  c #63442A",
"-  c #68472C",
";  c #66492D",
":  c #694A2E",
">  c #664630",
",  c #674931",
"<  c #6A4E31",
"1  c #674F3A",
"2  c #6C5132",
"3  c #6F5538",
"4  c #715536",
"5  c #725837",
"6  c #725738",
"7  c #755A3A",
"8  c #795D3D",
"9  c #7C613F",
"0  c #6C5742",
"q  c #6D5A46",
"w  c #7B5F40",
"e  c #715E49",
"r  c #7D6343",
"t  c #72604B",
"y  c #766551",
"u  c #796955",
"i  c #7A6A58",
"p  c #816645",
"a  c #836846",
"s  c #846748",
"d  c #846A49",
"f  c #846B49",
"g  c #856B49",
"h  c #856B48",
"j  c #866A48",
"k  c #876B49",
"l  c #846B4A",
"z  c #856B4A",
"x  c #866A4A",
"c  c #866B4A",
"v  c #876B4B",
"b  c #856949",
"n  c #866C49",
"m  c #846C4A",
"M  c #856C4A",
"N  c #856C4B",
"B  c #866C4A",
"V  c #866D4A",
"C  c #876D4A",
"Z  c #866D4B",
"A  c #876D4B",
"S  c #866E4A",
"D  c #876E4B",
"F  c #876F4B",
"G  c #866C4C",
"H  c #866D4D",
"J  c #866E4C",
"K  c #876E4D",
"L  c #876F4D",
"P  c #876D4E",
"I  c #836A49",
"U  c #886C4A",
"Y  c #886D4A",
"T  c #886C4B",
"R  c #896C4B",
"E  c #896D4B",
"W  c #886E4B",
"Q  c #896E4B",
"!  c #886D4C",
"~  c #886E4C",
"^  c #886F4C",
"/  c #896E4D",
"(  c #886F4D",
")  c #896F4D",
"_  c #8A6E4C",
"`  c #8A6E4D",
"'  c #886F4F",
"]  c #896F4C",
"[  c #88704C",
"{  c #89704D",
"}  c #8A704D",
"|  c #89704E",
" . c #8A714E",
".. c #8B714E",
"X. c #8A714F",
"o. c #8B714F",
"O. c #8A724E",
"+. c #8B724E",
"@. c #8A724F",
"#. c #8B724F",
"$. c #8C734F",
"%. c #8B724E",
"&. c #8B7350",
"*. c #8C7350",
"=. c #8C7351",
"-. c #8D7351",
";. c #8C7451",
":. c #8D7451",
">. c #8C7551",
",. c #8D7551",
"<. c #8D7452",
"1. c #8E7652",
"2. c #8E7454",
"3. c #8D7451",
"4. c #8F7854",
"5. c #8F7956",
"6. c #917752",
"7. c #907854",
"8. c #907954",
"9. c #907855",
"0. c #907955",
"q. c #917A56",
"w. c #917A57",
"e. c #927A56",
"r. c #927B57",
"t. c #937B57",
"y. c #937C57",
"u. c #927956",
"i. c #937B58",
"p. c #927B59",
"a. c #927C59",
"s. c #947D58",
"d. c #947D59",
"f. c #957E59",
"g. c #957F59",
"h. c #947D5A",
"j. c #947E5A",
"k. c #947F5A",
"l. c #957F5A",
"z. c #957E5B",
"x. c #947F5B",
"c. c #947E5A",
"v. c #96805C",
"b. c #97815D",
"n. c #97825D",
"m. c #97825E",
"M. c #96815D",
"N. c #98835F",
"B. c #99845F",
"V. c #98835E",
"C. c #998360",
"Z. c #998561",
"A. c #9A8561",
"S. c #9D8862",
"D. c #93836C",
"F. c #94846F",
"G. c #958570",
"H. c #968874",
"J. c #9D8F7B",
"K. c #9E8F7B",
"L. c #9A8F80",
"P. c #999081",
/* pixels */
"@ @ $ # # # % % * * * * * * * * * * * * * % * % % $ # @ @ @ @ $ ",
"@ J.G.F.$ K K N N g g g g g g g g g g g I I I I I I I = D.D.J.$ ",
"@ J.- , K &.$.1.t.t.t.t.t.i.j.j.j.y.y.y.t.t.t.t.5.1.[ [ - * J.# ",
"# , p a @ @ @ @ @ 2 4 6 7 7 7 8 8 8 7 6 5 4 : @ @ @ @ @ r p , # ",
"# j.p a @ w r r r @ @ @ @ @ @ @ @ @ @ @ @ @ @ r r 8 7 @ p p t.# ",
"% j.g g @ K r r r p # r r p p p p p p r r % p p r r N @ b a 5.# ",
"% j.N N @ @ K K r g g * p a a a a p p p - ^ N g ^ K @ # g b 5.% ",
"% j.N N @ 4 @ @ 2.g g N % % 7 8 8 9 - - ^ [ g 5.@ @ 8 % g b t.% ",
"% j.N N % 5 8 8 @ i.g N [ [ - r r - [ [ [ g t.@ 7 8 8 % N N t.% ",
"% j.[ ^ % 7 9 r r @ j.N [ -.$.* * T [ [ [ i.@ 8 8 8 8 % [ [ t.% ",
"% j.[ [ * p g T T T # C.[ -.-.-.1.: ^ [ N.@ g g g g g * [ [ j.% ",
"% j.[ [ * r g T T T T # N.v.1.-.-.$.: N.@ T g g g g g * [ [ v.* ",
"* j.[ [ % r k T T T T T @ @ v.1.$.-.-.@ ^ ^ N g g g g * 1.[ v.* ",
"* j.-.1.% r g T T T T - [ [ @ N.N.-.[ [ 4 ^ ^ g g g g * 1.-.B.* ",
"* j.1.1.% 5 8 8 8 - - [ [ ^ N.@ @ Z.[ ^ N - - r w w 8 % -.-.Z.% ",
"% j.1.1.# 4 8 8 - ^ [ [ $.N.@ p r @ Z.N N N g - 8 w 8 % -.-.Z.% ",
"% j.1.1.# 4 7 - g ^ $.^ N.@ r r r r @ N.g g g p - 8 8 # -.-.Z.% ",
"% j.1.1.@ % % g N ^ N.N.@ r r r r r r @ t.&.p r r % % # -.-.C.$ ",
"$ j.1.1.@ 8 a g g &.@ @ g g g s s s s s @ @ 1.r r r r @ -.&.v.@ ",
"@ j.1.1.@ 8 p a -.@ 8 8 s s s s s s s s 8 8 @ &.r r 8 @ &.&.j.@ ",
"@ = 1.1.@ @ @ # # # # % % % % % % % % % % % # # # @ @ @ -.&.> + ",
"@ H., > T N [ $.1.1.6.6.6.6.6.6.6.6.6.6.6.6.$.$.[ T g b > > H.X ",
"+ P.P.P.* v.v.N.N.N.B.Z.Z.S.S.S.S.S.S.S.Z.Z.Z.Z.Z.j.a.> L.L.L.X ",
"+ y y y X 8 8 9 p p p p p p p p p a a a a p p p p p r X u u u X ",
"+ e e X 8 8 r r p r p p p p p p p p a p p p p p p p r r X t t X ",
"X 1 X 8 8 8 r r r r r r r r p p p p p p p p p p p r r r r X 0 X ",
"X X r 8 X X X X X o O o + + + + + O + + + + + + o X X X r r X X ",
"X 8 8 8 X 2 2 2 4 r X = = < < < 2 < 2 ; = X 8 : : : - X 8 8 8 X ",
"X 8 8 8 X X 2 4 6 6 r X = 2 < < 2 2 2 ; X 8 6 6 : : X X 8 8 8 X ",
"X 8 8 8 X < X X 6 6 6 r X X 2 2 2 2 X X 8 6 3 2 X X ; X 8 8 8 X ",
"X 8 8 8 X 2 2 ; X 6 7 7 r r X 2 4 X r r 3 6 3 X = < < X 7 7 7 . ",
". 7 7 7 X 2 2 ; ; X 7 7 7 7 I X X I 6 6 6 6 X ; = < < X 7 7 7 . ",
". 7 7 7 . 2 2 ; ; ; X X 7 7 7 I I $ $ 6 X X ; - ; < < . 7 6 6 . ",
". 7 7 7 . 2 2 ; ; ; : < X 7 7 7 7 I I X , : ; ; - < < . 6 6 6 . ",
". 7 7 7 . < 2 ; ; ; . . r $ $ 7 7 7 7 r . . ; ; ; < < . 6 6 6 . ",
". 5 6 5 . < < ; ; . r r 6 6 6 . . 7 7 7 r r . ; ; < < . 6 6 3 . ",
". 6 6 6 . , < = . 8 3 6 6 6 . < < . 7 7 7 7 r . - < < . 6 6 6 . ",
". 6 6 6 . ; < . 8 2 3 6 . . < < < < . . 6 6 6 r . ; < . 6 6 2 . ",
". 2 6 6 . . . 6 2 2 2 . = < < < < < ; = . 6 6 2 r . . . 2 6 2 . ",
". 2 2 2 . 3 3 < < < . = = - : - - ; - & & . 2 2 < r r . 2 2 2 . ",
". 2 2 2 . < < < < . = = = - ; - ; ; ; & & & . < < < < . 2 2 2 . ",
"  . 2 2 . . . . . . . . . . . . . . . . . . . . . . . . 2 2 . . ",
". y . 2 8 r r r r r r p I I I I I I I I r r r a p r r r 2 . i . ",
". q i . < < < < < < < < < < < < : 2 2 2 2 2 2 2 2 2 2 2 . i q . ",
". q q y . < < < < < < < < < < < 2 2 2 2 < 2 2 2 2 2 2 . i q q . ",
". . . . . . . . . . . . . . . . . . . . . . . . . . . . . . . . "
};
