/* XPM */
static char *_d87cabbded0424aba6090c4a460e92e2gfyhKUhkJVOvB3A[] = {
/* columns rows colors chars-per-pixel */
"32 46 130 2 ",
"   c None",
".  c #0B0C0D",
"X  c #312014",
"o  c #362619",
"O  c #39291C",
"+  c #222426",
"@  c #3E3123",
"#  c #4D2712",
"$  c #4E2812",
"%  c #532C14",
"&  c #542F18",
"*  c #56321B",
"=  c #5A351D",
"-  c #5E391E",
";  c #613C1F",
":  c #403324",
">  c #5B3720",
",  c #5E3A21",
"<  c #623D23",
"1  c #644226",
"2  c #664529",
"3  c #694629",
"4  c #67482B",
"5  c #6A4A2D",
"6  c #6C4E31",
"7  c #654F3C",
"8  c #6F5234",
"9  c #66523F",
"0  c #715536",
"q  c #765837",
"w  c #735738",
"e  c #755A3A",
"r  c #795E3E",
"t  c #7A603F",
"y  c #363940",
"u  c #4C5359",
"i  c #675240",
"p  c #695642",
"a  c #6C5A46",
"s  c #6D5C48",
"d  c #715B44",
"f  c #7A5F40",
"g  c #715E48",
"h  c #7D6241",
"j  c #74624C",
"k  c #776650",
"l  c #756551",
"z  c #786651",
"x  c #786751",
"c  c #796851",
"v  c #796852",
"b  c #7A6952",
"n  c #7A6853",
"m  c #7A6953",
"M  c #7A6A53",
"N  c #7A6854",
"B  c #7B6954",
"V  c #7B6A54",
"C  c #7B6B55",
"Z  c #7C6B55",
"A  c #7C6C55",
"S  c #7D6C55",
"D  c #7C6C56",
"F  c #7D6C56",
"G  c #7D6D56",
"H  c #7A6955",
"J  c #7F6E59",
"K  c #7F6F59",
"L  c #7F6F5A",
"P  c #7D6D5A",
"I  c #7F705B",
"U  c #7F7262",
"Y  c #806544",
"T  c #806445",
"R  c #806545",
"E  c #816645",
"W  c #806546",
"Q  c #826746",
"!  c #836847",
"~  c #826947",
"^  c #836947",
"/  c #826848",
"(  c #836848",
")  c #826948",
"_  c #83694A",
"`  c #84694A",
"'  c #846A4A",
"]  c #876E4D",
"[  c #856C4E",
"{  c #866C4E",
"}  c #876E4F",
"|  c #876F4F",
" . c #886E4D",
".. c #886E4E",
"X. c #886F4E",
"o. c #896F4F",
"O. c #886F51",
"+. c #8A7254",
"@. c #8B7254",
"#. c #8B7455",
"$. c #8C7455",
"%. c #8D7455",
"&. c #8D7556",
"*. c #8E7556",
"=. c #81715B",
"-. c #81715C",
";. c #81715D",
":. c #937B5C",
">. c #967D5F",
",. c #857561",
"<. c #867661",
"1. c #847562",
"2. c #867966",
"3. c #897B67",
"4. c #8C7D68",
"5. c #8E7F6A",
"6. c #8C7F6D",
"7. c #977F61",
"8. c #8E806D",
"9. c #9B8466",
"0. c #9B8567",
"q. c #928371",
"w. c #938472",
"e. c #948776",
"r. c #8598A6",
"t. c #8598A6",
"y. c #A3BECC",
"u. c #A3BECC",
"i. c #C3DCE5",
"p. c #C3DCE5",
/* pixels */
"    3 ( -  .9.9.9.9.; q e e e E ; r r r r h = *.*.*.*.w < 0 ,   ",
"  5  .] - 7.q  .h h < h h e q h ; r r h h h 1 2 2 E f *.< 0 8 , ",
"3 '  .>.< q q ] h h < h h h e h 2 r r h h h 3 2 ( h h h 1 O.0 0 ",
"3 ' :.r < q ] E h h 2 h h h h h 2 r h h h t 4 ( h h h t 2 h ] 0 ",
"f @.e r < q  .E E E 2 h h h h h 3 r h h h t 4 h h h h h 5 r t ] ",
"#.q q r 1 ( h h h E 4 h h h h h 3 h t t h h 5 h h h h f 5 r r t ",
"@.q q q 4 h E E E h 4 h h h h E 3 h h h h h 5 h h h h h 6 t r r ",
"q q q q 4 h h E E h 4 h h h h E 2 h h h h h 5 h f h h h 8 t t r ",
"q q q e 5 h h h E h 4 h h h h E 2 E h h h h 5 h h h h h 8 t r r ",
"q q q q 5 h h h 1 h 5 f f f f h 4 ^ h h h h 5 h < h h h 6 t r r ",
"= - < < < < < < w.3 5 h f f f h 4 ^ h h h h 5 < q.< < < < , = = ",
"D -.-.-.<.<.<.<.D 5.1 h f f f h 4 ^ h h h h < q.m <.<.L L L L I ",
"d j j j m B B D D D 5.1 r r r h 4 ( h h h < q.m m m z j j j j j ",
"d j j j m B B B D D % r r r r h 3 ( h h h h % m m m k j j j j j ",
"% % % % % % % % Z % 8 r r r r h 3 ( h h h h 5 % m % % % % % % % ",
"1 1 2 5 - 5 5 5 % 6 8 r r . . . . . . h h h 5 5 % 5 4 4 4 4 4 4 ",
"q q e e , f h h 5 6 6 r . r.y.y.y.y.r.. h h 5 t 5 f f f 8 e q e ",
"e q q e 1 h f h f 6 6 . r.y.y.y.y.y.y.r.. h 5 h r r r r 8 w w w ",
"w w e e 5 h f r r 5 6 . i.y.y.y.y.y.y.i.. h 5 h r r r r 8 w w w ",
"w w w w 5 h r r r 5 6 . r.y.y.y.y.y.y.r.. h 5 h r r r r 8 w w w ",
"w w w w 5 h r r r r 6 . y.+ + r.r.+ + y.. h 6 h r r r r 8 0 0 0 ",
"w w w w 5 h e e q q 6 . y.+ + y.y.+ + y.. h 6 h r r r r 6 0 0 0 ",
"w w w w 5 h q q q q 6 . y.y.y.i.i.y.y.y.. t 8 h r r r r 6 0 0 0 ",
"0 0 0 w 5 h q q q q 6 q . y.y.r.r.y.y.. r r 8 h r r r r 6 0 0 8 ",
"0 0 0 0 6 f q e w w 6 q q . r.y.y.r.. = r r 8 h q r q e 4 8 8 8 ",
"0 0 0 0 5 f 0 w w w 6 q . y i.+ + i.y . q r 6 h q q q q 2 8 8 8 ",
"0 0 0 0 5 f 0 0 0 w 6 . y.. y y y y . y.. q 6 h q q q q 2 8 8 8 ",
"0 0 0 0 5 f 0 0 0 0 5 e . . u u u u . . q q 5 h q q q q 2 8 8 8 ",
"0 0 0 0 5 h 0 0 , 0 5 e e . u . . u . 4 q q 6 r < q q q 2 8 8 8 ",
"* * = = - , , , 8., 5 @ @ @ . O X . O @ @ e 6 < 6., , > > = = * ",
"z L Z D <.<.<.<.k 4., e e @ @ @ o : @ e w q < 6.j -.-.Z B B B D ",
"p d g g j j j k z z 3., 0 e e e 1 e w w q < 6.j j j j s s s s s ",
"p s g g j j k k z z % w 0 w w w 1 w w w w 0 % j j j j s s s s s ",
"$ $ % % % % % % k % 1 w 0 0 w w 1 w w 0 0 0 1 % s $ $ $ $ $ $ $ ",
"< 1 2 2 = 4 5 5 % 2 1 0 0 0 0 w 1 0 0 0 0 8 1 5 $ 2 2 2 , 2 1 < ",
"8 8 8 8 = 8 8 8 4 0 1 0 0 0 0 0 , 0 8 8 8 8 1 q 2 q q q , 6 6 6 ",
"8 8 8 8 , 8 8 8 8 0 < 0 0 0 0 0 * 8 8 8 8 8 < q q q q q , 6 6 6 ",
"8 8 8 8 , 8 8 8 8 8 , 0 0 0 0 0 & 8 8 8 8 8 , q q q q q , 6 6 6 ",
"= = , , , > > > = = * * * & % $ % & & * * * = = = = = = * * * & ",
"j j j j k k k z B B B B B B P U $ 1.1.P D B B B l l k k k k l l ",
"2.2.2.2.2.2.2.2.2.6.6.6.6.6.e.e.$ e.e.6.6.6.6.2.2.2.2.2.2.2.2.2.",
"9 9 9 i i i i a a a a a a a a l $ l s s s a a a a a p p p 7 9 9 ",
"9 9 9 9 9 i p a a a a a a a a k $ l s s s a a a a a p p p 7 7 7 ",
"7 7 9 p p p p a a a a a a a a k $ l s s s a a a p p p p p p p 7 ",
"7 7 p p p p p a a a a a a a a l $ l s s s s s a a p p p p p p p ",
"$ $ $ $ $ $ $ $ $ $ $ $ $ $ $ $ $ $ $ $ $ $ $ $ # # # # # # # # "
};
