/* XPM */
static char *_1aff25e91614dd1ea2479608ac6e525EN2EsfMJxXagE8EH[] = {
/* columns rows colors chars-per-pixel */
"32 46 122 2 ",
"   c None",
".  c #0B0C0D",
"X  c #222426",
"o  c #57331E",
"O  c #573520",
"+  c #583621",
"@  c #5C3B26",
"#  c #5E3E29",
"$  c #603E27",
"%  c #613F29",
"&  c #64432E",
"*  c #654632",
"=  c #674833",
"-  c #694B35",
";  c #6B4E39",
":  c #6D513D",
">  c #70533F",
",  c #363940",
"<  c #56544D",
"1  c #4C5359",
"2  c #5D5B54",
"3  c #A39E8E",
"4  c #A39E91",
"5  c #A5A08F",
"6  c #A5A091",
"7  c #AFA996",
"8  c #A7A399",
"9  c #A9A69D",
"0  c #ADA99B",
"q  c #B0AA97",
"w  c #B2AD9C",
"e  c #B2AE9C",
"r  c #B3AE9D",
"t  c #B3AE9E",
"y  c #B1AC9C",
"u  c #B4AF9D",
"i  c #B4AE9E",
"p  c #B4AF9E",
"a  c #B4AF9F",
"s  c #B5AF9F",
"d  c #B1AB9A",
"f  c #B4B09F",
"g  c #B5B09F",
"h  c #8598A6",
"j  c #B0ADA3",
"k  c #B1AEA3",
"l  c #B2AEA5",
"z  c #B2AFA5",
"x  c #B3AFA6",
"c  c #B5B0A0",
"v  c #B5B0A1",
"b  c #B5B1A1",
"n  c #B6B0A0",
"m  c #B6B0A1",
"M  c #B6B1A1",
"N  c #B6B1A2",
"B  c #B6B1A3",
"V  c #B7B2A2",
"C  c #B7B2A3",
"Z  c #B7B3A3",
"A  c #B3B0A7",
"S  c #B7B2A4",
"D  c #B7B3A4",
"F  c #B4B0A7",
"G  c #B8B2A3",
"H  c #B8B3A3",
"J  c #B8B3A4",
"K  c #B8B3A5",
"L  c #B8B3A6",
"P  c #B8B4A4",
"I  c #B9B4A4",
"U  c #B8B4A5",
"Y  c #B9B4A5",
"T  c #B9B5A5",
"R  c #B9B4A6",
"E  c #B9B5A6",
"W  c #B9B4A7",
"Q  c #B9B5A7",
"!  c #BAB5A6",
"~  c #BAB5A7",
"^  c #BBB6A7",
"/  c #BAB5A7",
"(  c #B7B3A9",
")  c #B7B3A9",
"_  c #BAB5A8",
"`  c #BAB6A8",
"'  c #BBB6A8",
"]  c #BBB7A8",
"[  c #BBB6A9",
"{  c #BBB7A9",
"}  c #B8B4AA",
"|  c #B8B4AB",
" . c #B8B5AB",
".. c #BCB7AA",
"X. c #B9B6AC",
"o. c #B9B6AD",
"O. c #BAB6AC",
"+. c #BAB7AE",
"@. c #BAB6A9",
"#. c #BCB8AA",
"$. c #BDB9AC",
"%. c #BEBAAE",
"&. c #BFBBAF",
"*. c #BCB8AA",
"=. c #BCBAB1",
"-. c #BCBAB1",
";. c #C1BDB2",
":. c #C1BEB2",
">. c #C1BEB3",
",. c #C1BFB4",
"<. c #C2BFB4",
"1. c #C2BEB5",
"2. c #C3C0B7",
"3. c #C3C1B7",
"4. c #C3C0B7",
"5. c #C4C1B8",
"6. c #C5C2B9",
"7. c #C6C4BB",
"8. c #C7C5BC",
"9. c #C6C4BB",
"0. c #A3BECC",
"q. c #C3DCE5",
/* pixels */
"  : : : : : ; - - - = = - - - ; ; ; ; - ; ; ; : : : ; ; ; : ;   ",
": k 3 3 3 3 3 3 3 3 3 3 3 3 3 3 7 7 7 7 7 7 7 7 7 q q q q q -.; ",
"> k 3 3 3 3 3 3 3 3 3 3 3 3 3 3 q q 7 7 q q q q 7 7 q q q q $.: ",
"> k 3 3 3 3 3 3 3 3 3 3 3 3 3 3 q q 7 7 q q q q q q q q q q $.: ",
": z 3 3 3 3 3 3 3 3 3 3 3 3 3 3 q q q q y y y y q y y y q q $.; ",
": z 3 3 3 3 3 3 3 3 3 3 3 3 3 3 y y y w w y y y y y y y y q ;.; ",
": z 3 3 3 3 3 5 6 3 3 3 3 3 3 3 w w w w w w w w w w w w w w ;.; ",
": z 6 6 6 6 6 3 4 4 4 4 3 3 3 3 w w w w w w w w w w w w w w ;.- ",
": F 6 6 4 6 6 6 4 4 4 4 4 3 3 3 p p p p p p p p p p p w w w ;.- ",
"; F 6 6 6 6 6 6 6 6 6 6 6 4 6 3 p g g g g g p p g p p g p p ,.- ",
"- z 6 6 6 6 6 6 6 6 6 6 6 6 6 6 Z Z Z Z Z Z Z Z Z Z Z Z Z Z ,.- ",
"= z 6 6 6 6 6 6 6 6 6 6 6 6 6 6 Z Z Z Z Z Z Z Z Z Z Z Z Z Z ,.- ",
"& 3.G Z G Z G G Z F Z F F F F G 4 6 6 6 4 4 4 4 4 4 3 3 3 3 8 - ",
"& 5.K K K K K Y K Y Y K K K K K 6 6 4 4 4 4 6 4 4 4 3 4 3 3 8 - ",
"& 5.K K K K Y Y Y Y Y Y Y Y Y K 6 6 6 6 6 6 4 4 4 4 4 4 3 3 9 - ",
"& 7.Y K K Y Y Y Y Y Y Y Y . . . . . . 4 4 4 4 4 4 4 4 4 4 3 9 = ",
"& 7.Y Y Y Y Y Y Y Y Y Y . h 0.0.0.0.h . 4 4 4 4 4 4 4 4 3 4 9 = ",
"& 7.} Y Y } Y } } } } . h 0.0.0.0.0.0.h . 4 4 4 4 4 4 3 4 4 9 * ",
"& 7.......} } } } } } . q.0.0.0.0.0.0.q.. 4 4 4 4 4 4 4 4 4 9 * ",
"& 7.#.#.#.#.} } #.#.} . h 0.0.0.0.0.0.h . 4 4 4 4 4 4 4 4 4 9 & ",
"& 7.} } } } } #.#.#.} . 0.X X h h X X 0.. 4 4 4 4 4 4 4 4 4 9 & ",
"* 8.} } ......#.#.#.#.. 0.X X 0.0.X X 0.. 4 4 4 4 4 4 4 4 4 9 & ",
"* 8.8.8.7.7.7.7.7.5.3.. 0.0.0.q.q.0.0.0.. O.O.} ( } } } O.O.-.% ",
"* k 3 3 3 3 3 3 3 3 3 3 . 0.0.h h 0.0.. 7 7 7 7 7 q q q q q $.% ",
"= k 3 3 3 3 3 3 3 3 3 3 3 . h 0.0.h . q q q q q 7 7 q q q q $.$ ",
"- k 3 3 3 3 3 3 3 3 3 3 . , q.X X q., . q q q q q q q q q q $.# ",
"= z 3 3 3 3 3 3 3 3 3 . 0.. , , , , . 0.. y y y q y y y q q $.# ",
"- z 3 3 3 3 3 3 3 3 3 3 . . 1 1 1 1 . . w y y y y y y y y y ;.# ",
"* z 3 3 3 3 3 5 6 3 3 3 3 . 1 . . 1 . w w w w w w w y w y y ;.# ",
"* z 6 6 6 6 6 3 4 4 4 < < < . < 2 . 2 2 2 w w w w w w w w y ;.# ",
"* F 6 6 4 6 6 6 4 4 4 4 4 < < < 2 2 2 p p p p p p p p w w w ;.# ",
"* A 6 6 6 6 6 6 6 6 6 6 6 4 6 3 g g g g g g p p g p p g p p ,.# ",
"* z 6 6 6 6 6 6 6 6 6 6 6 6 6 6 Z Z Z Z Z Z k Z Z Z Z Z Z Z ,.# ",
"* z 6 6 6 6 6 6 6 6 6 6 6 6 6 6 Z Z Z Z Z Z Z Z Z Z Z Z Z Z ,.# ",
"* 3.G Z G Z G G Z F Z F F F F F 6 6 6 6 4 4 4 4 3 3 3 3 3 3 8 # ",
"* 5.K K K K K Y K Y Y K K K K K 6 6 4 4 4 4 4 4 3 4 3 4 3 3 8 # ",
"& 5.K K K K Y Y Y Y Y Y Y Y Y K 6 6 6 6 6 6 4 4 4 4 4 4 3 3 9 # ",
"& 7.Y K K Y Y Y Y Y Y Y Y Y Y Y 6 6 6 4 4 4 4 4 4 4 4 4 4 3 9 # ",
"# 7.Y Y Y Y Y Y Y Y Y Y Y Y Y Y 4 4 4 4 4 4 4 4 4 4 4 4 3 4 9 # ",
"@ 7.} Y Y } Y } } } } } } Y Y Y 6 4 4 4 4 4 4 4 4 4 4 3 4 4 9 @ ",
"@ 7.....} } } } } } } } } } } Y 4 4 4 4 4 4 4 4 4 4 4 4 4 4 9 @ ",
"@ 7.#.#.} } } } #.#.#.#.} } } } 4 4 4 4 4 4 4 4 4 4 4 4 4 4 9 @ ",
"+ 7.#.#.} } } #.#.#.} #.#.#.} } 4 4 4 4 4 4 4 4 4 4 4 4 4 4 9 @ ",
"+ 8.#.#.......#.#.#.#.#.#.#.} } 4 4 4 4 4 4 4 4 4 4 4 4 4 4 9 + ",
"o 8.8.8.7.7.7.7.7.5.3.3.,.,.,.,.O.O.O.} O.O.O.} ( } } } O.O.-.+ ",
"  o o o o o o o + o o + + + + + O o o o o o o O O + + + + + +   "
};
