/* XPM */
static char *eb37b823fb46456eb74d070013cb708ejAYqz76zcGFLaGrB[] = {
/* columns rows colors chars-per-pixel */
"32 46 133 2 ",
"   c None",
".  c #4D2712",
"X  c #4E2812",
"o  c #522B14",
"O  c #542F18",
"+  c #56321B",
"@  c #5A351D",
"#  c #5E391F",
"$  c #613C1F",
"%  c #5B3720",
"&  c #5E3A21",
"*  c #623D23",
"=  c #644226",
"-  c #664529",
";  c #684629",
":  c #67482B",
">  c #6A4A2C",
",  c #6C4E31",
"<  c #654F3C",
"1  c #6F5234",
"2  c #66523F",
"3  c #6C553E",
"4  c #715536",
"5  c #765837",
"6  c #735738",
"7  c #755A3A",
"8  c #795E3E",
"9  c #7A603F",
"0  c #675240",
"q  c #695642",
"w  c #6C5A46",
"e  c #6D5C48",
"r  c #715C46",
"t  c #7A5F40",
"y  c #715E48",
"u  c #7E6344",
"i  c #7F6444",
"p  c #7F6544",
"a  c #7E6445",
"s  c #7C6141",
"d  c #72604A",
"f  c #73604A",
"g  c #73614A",
"h  c #75624B",
"j  c #75624C",
"k  c #76634C",
"l  c #76634D",
"z  c #75634D",
"x  c #776650",
"c  c #756551",
"v  c #786651",
"b  c #786751",
"n  c #796851",
"m  c #796852",
"M  c #7A6952",
"N  c #7A6853",
"B  c #7A6953",
"V  c #7A6A53",
"C  c #7A6854",
"Z  c #7B6954",
"A  c #7B6A54",
"S  c #7B6B55",
"D  c #7C6B55",
"F  c #7C6C55",
"G  c #7D6C55",
"H  c #7C6C56",
"J  c #7D6C56",
"K  c #7D6D56",
"L  c #7A6955",
"P  c #7F6E59",
"I  c #7F6F59",
"U  c #7F6F5A",
"Y  c #7D6D5A",
"T  c #7F705B",
"R  c #7F7262",
"E  c #806544",
"W  c #806445",
"Q  c #806545",
"!  c #816645",
"~  c #806546",
"^  c #826746",
"/  c #836847",
"(  c #826947",
")  c #836947",
"_  c #826848",
"`  c #836848",
"'  c #826948",
"]  c #836A49",
"[  c #83694A",
"{  c #84694A",
"}  c #846A4A",
"|  c #856B4B",
" . c #866D4C",
".. c #876E4D",
"X. c #856C4E",
"o. c #866C4E",
"O. c #876E4F",
"+. c #876F4F",
"@. c #856C4C",
"#. c #886E4D",
"$. c #886E4E",
"%. c #886F4E",
"&. c #896F4F",
"*. c #886F51",
"=. c #8A7254",
"-. c #8B7254",
";. c #8B7455",
":. c #8C7455",
">. c #8D7455",
",. c #8D7556",
"<. c #8E7556",
"1. c #81705B",
"2. c #81715B",
"3. c #81715C",
"4. c #81715D",
"5. c #937B5C",
"6. c #967D5F",
"7. c #857561",
"8. c #867661",
"9. c #847562",
"0. c #867966",
"q. c #897B67",
"w. c #8C7D68",
"e. c #8E7F6A",
"r. c #8C7F6C",
"t. c #977F61",
"y. c #8E806C",
"u. c #9B8466",
"i. c #9B8566",
"p. c #9B8567",
"a. c #928371",
"s. c #938472",
"d. c #948776",
/* pixels */
"    ; ` # #.u.u.u.u.$ 5 5 5 5 ! # 8 8 8 8 9 @ <.<.<.<.6 * 4 &   ",
"  > #...# t.5 #.i u $ u u 5 5 u $ 8 8 u u 9 = ; - ! t <.* 4 1 & ",
"; } #.6.* 5 5 ..p u * u u u 5 u - 8 8 u u 9 ; - } u s s = *.4 4 ",
"; } 5.8 * 5 ..! p p - u u u u u - 8 u u 9 9 : / u s 9 s - u ..4 ",
"t -.5 8 * 5 #.! ! ! - u u u u u ; 8 u u u 9 : 9 s s s s > 8 9 ..",
";.5 5 8 = ` p p i u : u u u s u ; 9 9 9 9 u : u s s s t > 8 8 9 ",
"-.5 5 5 : u ! ! i u : t s s s ! ; 9 9 9 u u > u s s s s , 9 8 8 ",
"5 5 5 5 : u p ! E u : t s s s ! - i u u u u > u s s s s 1 9 9 8 ",
"5 5 5 7 > u p p ! p : s s s s ! - ! u u u u > 9 s s s s 1 9 8 8 ",
"5 5 5 5 > u u p = u > t t t t p : / u u u u > 9 * s s s , 9 8 8 ",
"@ # * * * * * * s.; > t t t t p : / u u u u > * a.* * * * & @ @ ",
"H 3.3.3.8.8.8.8.H e.= t t t t p : / u u u u * a.B 8.8.U U U U T ",
"r j j j B Z Z H H H e.= 8 8 8 i : / 9 9 u * a.B B B v f f f f f ",
"r j h j B Z Z Z H H o 8 8 8 8 u ; / u u u u o B B B x f f f f f ",
"o o o o o o o o D o 1 8 8 8 8 u ; ` u u u u > o B o o o o o o o ",
"= = - > # > > > o , 1 8 8 8 8 u ; ` u u u u > > o > > > > > > : ",
"5 5 5 5 & t s s > , , 8 8 8 t u ; } u u u u > 9 : 8 t t 1 6 5 6 ",
"6 5 5 6 = s t s t , , 8 8 8 8 u - ..9 9 9 9 > u 8 8 8 8 1 6 6 6 ",
"6 6 5 6 > s 8 8 8 > , 8 8 8 8 u - ..9 9 u 9 > u 8 8 8 8 1 6 6 6 ",
"6 6 6 6 > u 8 8 8 > , 8 8 8 8 u - ..u u u u > u 8 8 8 8 1 6 6 6 ",
"6 6 6 6 > s 8 8 8 8 , 7 8 8 8 u - ..u u u u > u 8 8 8 8 1 4 4 4 ",
"6 6 6 6 > s 7 7 5 5 , 7 7 7 7 u - | 9 9 9 s > u 8 8 8 8 , 4 4 4 ",
"6 6 6 6 > s 7 5 5 5 , 5 5 5 @ * * * & 9 9 9 1 u 8 8 8 8 , 4 4 4 ",
"4 4 4 6 > s 5 5 5 5 , 5 5 @ y.e.e.e.w.# 8 8 1 u 8 8 8 8 , 4 4 1 ",
"4 4 4 4 , t 5 6 6 6 , 5 5 # z z z z j @ 8 8 1 s 5 8 5 7 : 1 1 1 ",
"4 4 4 4 > t 4 6 6 6 , 5 5 @ j j o j h @ 5 8 , s 5 5 5 5 - 1 1 1 ",
"4 4 4 4 > t 4 4 4 6 , 5 5 o r y o r r o 5 5 , s 5 5 5 5 - 1 1 1 ",
"4 4 4 4 > t 4 4 4 4 > 6 5 o 3 3 3 3 3 o 5 5 > s 5 5 5 5 - 1 1 1 ",
"4 4 4 4 > s 4 4 & 4 > 6 6 : o o o o o : 5 5 > 8 * 5 5 5 - 1 1 1 ",
"+ + @ @ # & & & y.& > 6 6 6 : : + : : 5 6 6 , * r.& & % % @ @ + ",
"v U D H 8.8.8.8.x w.& 6 6 6 6 6 = 8 5 6 6 5 * r.z 3.3.D Z Z Z H ",
"q r y y j z z x v v q.& 4 6 6 6 = 6 6 6 5 * r.z z z j e e e e e ",
"q e y y j j x x v v o 6 4 6 6 6 = 6 6 6 6 4 o z z j j e e e e e ",
"X X o o o o o o x o = 6 4 4 6 6 = 6 6 4 4 4 = o e X X X X X X X ",
"* = - - @ : > > o - = 4 4 4 4 6 = 4 4 4 4 1 = > X - - - & = = * ",
"1 1 1 1 @ 1 1 1 : 4 = 4 4 4 4 4 & 4 1 1 1 1 = 5 - 5 5 5 & , , , ",
"1 1 1 1 & 1 1 1 1 4 * 4 4 4 4 4 + 1 1 1 1 1 * 5 5 5 5 5 & , , , ",
"1 1 1 1 & 1 1 1 1 1 & 4 4 4 4 4 O 1 1 1 1 1 & 5 5 5 5 5 & , , , ",
"@ @ & & & % % % @ @ + + + O o X o O O + + + @ @ @ @ @ @ + + + O ",
"j j j x x x x v Z Z Z Z Z Z Y R X 9.9.Y H Z Z Z c c x x x x c c ",
"0.0.0.0.0.0.0.0.0.r.r.r.r.r.d.d.X d.d.r.r.r.r.0.0.0.0.0.0.0.0.0.",
"2 2 2 0 0 0 0 w w w w w w w w c X c e e e w w w w w q q q < 2 2 ",
"2 2 2 2 2 0 q w w w w w w w w x X c e e e w w w w w q q q < < < ",
"< < 2 q q q q w w w w w w w w x X c e e e w w w q q q q q q q < ",
"< < q q q q q w w w w w w w w c X c e e e e e w w q q q q q q q ",
"X X X X X X X X X X X X X X X X X X X X X X X X . . . . . . . . "
};
