/* XPM */
static char *_d274d3647b74806e18c50e16e5e01396JKKebiTVEEnsveL[] = {
/* columns rows colors chars-per-pixel */
"32 46 131 2 ",
"   c None",
".  c #0B0C0D",
"X  c #57331E",
"o  c #573520",
"O  c #583621",
"+  c #5C3B26",
"@  c #5E3E29",
"#  c #603E27",
"$  c #613F29",
"%  c #64432E",
"&  c #654632",
"*  c #674833",
"=  c #694B35",
"-  c #6B4E39",
";  c #6D513D",
":  c #70533F",
">  c #363940",
",  c #55544C",
"<  c #4C5359",
"1  c #5D5A53",
"2  c #667480",
"3  c #A39E8D",
"4  c #A39E91",
"5  c #A5A08F",
"6  c #A5A091",
"7  c #AFA996",
"8  c #A7A399",
"9  c #A9A69D",
"0  c #ADA99B",
"q  c #B0AA97",
"w  c #B2AC9C",
"e  c #B2AD9C",
"r  c #B2AD9D",
"t  c #B3AD9D",
"y  c #B2AE9C",
"u  c #B3AE9D",
"i  c #B3AE9E",
"p  c #B1AC9C",
"a  c #B4AF9D",
"s  c #B4AE9E",
"d  c #B4AF9E",
"f  c #B4AF9F",
"g  c #B5AF9F",
"h  c #B1AB9A",
"j  c #B4B09F",
"k  c #B5B09F",
"l  c #B4B09F",
"z  c #B0ADA3",
"x  c #B1AEA3",
"c  c #B2AEA5",
"v  c #B2AFA5",
"b  c #B3AFA6",
"n  c #B3AFA6",
"m  c #B5B0A0",
"M  c #B5B0A1",
"N  c #B5B1A1",
"B  c #B6B0A0",
"V  c #B6B0A1",
"C  c #B6B1A1",
"Z  c #B6B1A2",
"A  c #B6B1A3",
"S  c #B7B2A2",
"D  c #B7B2A3",
"F  c #B7B3A3",
"G  c #B3B0A7",
"H  c #B7B2A4",
"J  c #B7B3A4",
"K  c #B4B0A7",
"L  c #B6B1A2",
"P  c #B8B2A3",
"I  c #B8B3A3",
"U  c #B8B3A4",
"Y  c #B8B3A5",
"T  c #B8B3A6",
"R  c #B8B4A4",
"E  c #B9B4A4",
"W  c #B8B4A5",
"Q  c #B9B4A5",
"!  c #B9B5A5",
"~  c #B9B4A6",
"^  c #B9B5A6",
"/  c #B9B4A7",
"(  c #B9B5A7",
")  c #BAB5A6",
"_  c #BAB5A7",
"`  c #BBB6A7",
"'  c #B9B4A5",
"]  c #B7B3A9",
"[  c #B7B3A9",
"{  c #BAB5A8",
"}  c #BAB6A8",
"|  c #BBB6A8",
" . c #BBB7A8",
".. c #BBB6A9",
"X. c #BBB7A9",
"o. c #B8B4AA",
"O. c #B8B4AB",
"+. c #B8B5AB",
"@. c #B9B5AB",
"#. c #BCB7AA",
"$. c #B9B5AC",
"%. c #B9B6AC",
"&. c #B9B6AD",
"*. c #BAB6AC",
"=. c #BAB6AD",
"-. c #BAB7AE",
";. c #BAB6A9",
":. c #BCB8AA",
">. c #BDB9AC",
",. c #BEBAAE",
"<. c #BFBBAF",
"1. c #BCB8AA",
"2. c #BCBAB1",
"3. c #BCBAB1",
"4. c #C1BDB2",
"5. c #C1BEB2",
"6. c #C1BEB3",
"7. c #C1BFB4",
"8. c #C2BFB4",
"9. c #C2BEB5",
"0. c #C2BFB6",
"q. c #C2BFB5",
"w. c #C3C0B7",
"e. c #C3C1B7",
"r. c #C3C1B7",
"t. c #C4C1B8",
"y. c #C5C2B9",
"u. c #C6C4BB",
"i. c #C7C5BC",
"p. c #C6C4BB",
"a. c #C3DCE5",
/* pixels */
"  ; ; ; ; ; - = = = * * = = = - - - - = - - - ; ; ; - - - ; -   ",
"; x 3 3 3 3 3 3 3 3 3 3 3 3 3 3 7 7 7 7 7 7 7 7 7 q q q q q 3.- ",
": x 3 3 3 3 3 3 3 3 3 3 3 3 3 3 q q 7 7 q q q q 7 7 q q q q >.; ",
": x 3 3 3 3 3 3 3 3 3 3 3 3 3 3 q q 7 7 q q q q q q q q q q >.; ",
"; v 3 3 3 3 3 3 3 3 3 3 3 3 3 3 q q q q p p p p q p p p q q >.- ",
"; v 3 3 3 3 3 3 3 3 3 3 3 3 3 3 p p p e e p p p p p p p p q 4.- ",
"; v 3 3 3 3 3 5 6 3 3 3 3 3 3 3 e e e e e e e e e e e e e e 4.- ",
"; v 6 6 6 6 6 3 4 4 4 4 3 3 3 3 e e e e e e e e e e e e e e 4.= ",
"; K 6 6 4 6 6 6 4 4 4 4 4 3 3 3 d d d d d d d d d d d e e e 4.= ",
"- K 6 6 6 6 6 6 6 6 6 6 6 4 6 3 d k k k k k d d k d d k d d 7.= ",
"= v 6 6 6 6 6 6 6 6 6 6 6 6 6 6 F F F F F F F F F F F F F F 7.= ",
"* v 6 6 6 6 6 6 6 6 6 6 6 6 6 6 F F F F F F F F F F F F F F 7.= ",
"% e.P F P F P P F K F K K K K P 4 6 6 6 4 4 4 4 4 4 3 3 3 3 8 = ",
"% t.Y Y Y Y Y Q Y Q Q Y Y Y Y Y 6 6 4 4 4 4 6 4 4 4 3 4 3 3 8 = ",
"% t.Y Y Y Y Q Q Q Q Q Q Q Q Q Y 6 6 6 6 6 6 4 4 4 4 4 4 3 3 9 = ",
"% u.Q Y Y Q Q Q Q Q . . . Q Q Q 6 4 6 . . . 4 4 4 4 4 4 4 3 9 * ",
"% u.Q Q Q Q Q Q Q . 2 2 2 . . . . . . 2 2 2 . 4 4 4 4 4 3 4 9 * ",
"% u.@.Q Q @.Q @.@.@.. > . . 2 2 2 2 . . > . 4 4 4 4 4 3 4 4 9 & ",
"% u.#.@.@.@.@.@.@.@.. > > < < a.< < < > > . 4 4 4 4 4 4 4 4 9 & ",
"% u.#.:.#.@.@.@.:.:.@.. . < > > > > < . . 4 4 4 4 4 4 4 4 4 9 % ",
"% u.@.@.@.@.@.:.:.:.@.@.. > . . . . > . 4 4 4 4 4 4 4 4 4 4 9 % ",
"& i.@.@.#.#.#.:.:.:.:.@.@.. @.@.4 4 . 4 4 4 4 4 4 4 4 4 4 4 9 % ",
"& i.i.i.u.u.u.u.u.t.e.7.7.7.7.7.$.$.$.@.$.$.$.@.] @.@.@.$.$.3.$ ",
"& x 3 3 3 3 3 3 3 3 3 3 3 3 3 3 7 7 7 7 7 7 7 7 7 q q q q q >.$ ",
"& x 3 3 3 3 3 3 3 3 3 3 3 3 3 3 q q q q q q q q 7 7 q q q q >.# ",
"* x 3 3 3 3 3 3 3 3 3 3 3 , , , 1 1 1 q q q q q q q q q q q >.@ ",
"& v 3 3 3 3 3 3 3 3 3 , , , , , 1 1 1 1 1 p p p q p p p q q >.@ ",
"* v 3 3 3 3 3 3 3 , , , , , , , 1 1 1 1 1 1 1 p p p p p p p 4.@ ",
"& v 3 3 3 3 3 5 6 3 3 , , , , , 1 1 1 1 1 e e e e e p e p p 4.@ ",
"& v 6 6 6 6 6 3 4 4 4 4 3 , , , 1 1 1 e e e e e e e e e e p 4.@ ",
"& K 6 6 4 6 6 6 4 4 4 4 4 3 3 3 d d d d d d d d d d d e e e 4.@ ",
"& G 6 6 6 6 6 6 6 6 6 6 6 4 6 3 k k k k k k d d k d d k d d 7.@ ",
"& v 6 6 6 6 6 6 6 6 6 6 6 6 6 6 F F F F F F x F F F F F F F 7.@ ",
"& v 6 6 6 6 6 6 6 6 6 6 6 6 6 6 F F F F F F F F F F F F F F 7.@ ",
"& e.P F P F P P F K F K K K K K 6 6 6 6 4 4 4 4 3 3 3 3 3 3 8 @ ",
"& t.Y Y Y Y Y Q Y Q Q Y Y Y Y Y 6 6 4 4 4 4 4 4 3 4 3 4 3 3 8 @ ",
"% t.Y Y Y Y Q Q Q Q Q Q Q Q Q Y 6 6 6 6 6 6 4 4 4 4 4 4 3 3 9 @ ",
"% u.Q Y Y Q Q Q Q Q Q Q Q Q Q Q 6 6 6 4 4 4 4 4 4 4 4 4 4 3 9 @ ",
"@ u.Q Q Q Q Q Q Q Q Q Q Q Q Q Q 4 4 4 4 4 4 4 4 4 4 4 4 3 4 9 @ ",
"+ u.@.Q Q @.Q @.@.@.@.@.@.Q Q Q 6 4 4 4 4 4 4 4 4 4 4 3 4 4 9 + ",
"+ u.` ` @.@.@.@.@.@.Q Q @.@.@.Q 4 4 4 4 4 4 4 4 4 4 4 4 4 4 9 + ",
"+ u.:.:.@.@.@.@.:.:.@.@.@.@.:. .4 4 4 4 4 4 4 4 4 4 4 4 4 4 9 + ",
"O u.:.#.@.@.@.:.:.:.@.@. .:.:.:.4 4 4 4 4 4 4 4 4 4 4 4 4 4 9 + ",
"O i.#.@.#.#.#.:.:.:.:.@. .:.:.:.4 4 4 4 4 4 4 4 4 4 4 4 4 4 9 + ",
"X i.i.i.u.u.u.u.u.t.e.7.7.7.7.7.$.$.$.@.$.$.$.@.] @.@.@.$.$.3.O ",
"  X X X X X X X O X X o O O O O o X X X X X X o o O O O O O O   "
};
