/* XPM */
static char *b84b307fd86142d5c36f54336580bd6fS8IrTICkttI1sNuS[] = {
/* columns rows colors chars-per-pixel */
"32 46 135 2 ",
"   c None",
".  c #57331E",
"X  c #573520",
"o  c #583621",
"O  c #5C3B26",
"+  c #5E3E29",
"@  c #603E27",
"#  c #613F29",
"$  c #64432E",
"%  c #654632",
"&  c #674833",
"*  c #694B35",
"=  c #6B4E39",
"-  c #6D513D",
";  c #70533F",
":  c #A39E8D",
">  c #A39E91",
",  c #A5A08F",
"<  c #A5A091",
"1  c #AFA996",
"2  c #A7A399",
"3  c #A9A69D",
"4  c #AAA89F",
"5  c #AFAA98",
"6  c #B0AA97",
"7  c #B0AA98",
"8  c #B0AB98",
"9  c #B0AA99",
"0  c #B0AB99",
"q  c #B1AB99",
"w  c #B0AB9A",
"e  c #B1AB9A",
"r  c #B1AB9B",
"t  c #B1AC99",
"y  c #B1AC9A",
"u  c #B1AC9B",
"i  c #B2AC9A",
"p  c #B2AC9B",
"a  c #B2AD9B",
"s  c #B1AC9C",
"d  c #B2AC9C",
"f  c #B2AD9C",
"g  c #B2AD9D",
"h  c #B3AD9D",
"j  c #B2AE9C",
"k  c #B3AE9D",
"l  c #B3AE9E",
"z  c #B4AF9D",
"x  c #B4AE9E",
"c  c #B4AF9E",
"v  c #B4AF9F",
"b  c #B5AF9F",
"n  c #B4B09F",
"m  c #B5B09F",
"M  c #B0ADA3",
"N  c #B1AEA3",
"B  c #B2AEA5",
"V  c #B2AFA5",
"C  c #B3AFA6",
"Z  c #B5B0A0",
"A  c #B5B0A1",
"S  c #B5B1A1",
"D  c #B6B0A0",
"F  c #B6B0A1",
"G  c #B6B1A1",
"H  c #B6B1A2",
"J  c #B6B1A3",
"K  c #B7B2A2",
"L  c #B7B2A3",
"P  c #B7B3A3",
"I  c #B3B0A7",
"U  c #B7B2A4",
"Y  c #B7B3A4",
"T  c #B4B0A7",
"R  c #B8B2A3",
"E  c #B8B3A3",
"W  c #B8B3A4",
"Q  c #B8B3A5",
"!  c #B8B3A6",
"~  c #B8B4A4",
"^  c #B9B4A4",
"/  c #B8B4A5",
"(  c #B9B4A5",
")  c #B9B5A5",
"_  c #B9B4A6",
"`  c #B9B5A6",
"'  c #B9B4A7",
"]  c #B9B5A7",
"[  c #BAB5A6",
"{  c #BAB5A7",
"}  c #BAB6A7",
"|  c #BBB6A7",
" . c #B7B3A9",
".. c #B7B3A9",
"X. c #BAB5A8",
"o. c #BAB6A8",
"O. c #BBB6A8",
"+. c #BBB7A8",
"@. c #BBB6A9",
"#. c #BBB7A9",
"$. c #B8B4AA",
"%. c #B8B4AB",
"&. c #B8B5AB",
"*. c #B9B5AB",
"=. c #BCB7AA",
"-. c #B9B5AC",
";. c #B9B6AC",
":. c #B9B6AD",
">. c #BAB6AC",
",. c #BAB6AD",
"<. c #BAB7AE",
"1. c #BAB6AA",
"2. c #BCB8AA",
"3. c #BDB9AC",
"4. c #BEBAAE",
"5. c #BFBBAF",
"6. c #BCB8AA",
"7. c #BCBAB1",
"8. c #BCBAB1",
"9. c #C1BDB2",
"0. c #C1BEB2",
"q. c #C1BEB3",
"w. c #C1BFB4",
"e. c #C2BFB4",
"r. c #C2BEB5",
"t. c #C2BFB6",
"y. c #C2BEB5",
"u. c #C3C0B7",
"i. c #C3C1B7",
"p. c #C3C0B7",
"a. c #C4C1B8",
"s. c #C5C2B9",
"d. c #C6C4BB",
"f. c #C7C5BC",
"g. c #C6C4BB",
/* pixels */
"  - - - - - = * * * & & * * * = = = = * = = = - - - = = = - =   ",
"- N : : : : : : : : : : : : : : 1 1 1 1 1 1 1 1 5 7 7 7 7 7 5.= ",
"; N : : : : : : : : : : : : : : 6 6 1 1 6 6 7 7 5 5 7 7 7 7 5.- ",
"; N : : : : : : : : : : : : : : 7 6 1 1 7 7 7 7 7 7 7 7 7 7 5.- ",
"- V : : : : : : : : : : : : : : 7 7 7 7 u u u u 7 u u u 7 7 5.= ",
"- V : : : : : : : : : : : : : : u u u f f u u u u u u u u 7 9.= ",
"; V : : : : : , < : : : : : : : f f f f f f f f f f u f u u 9.= ",
"- V < < < < < : > > > > : : : : f f f f f f f f f f f f f u 9.* ",
"- T < < > < < < > > > > > : : : c c c c c c c c c c c f f f 9.* ",
"= T < < < < < < < < < < < > < : c m m m m m c c m c c m c c w.* ",
"* V < < < < < < < < < < < < < < P P P P P P P P P P P P P P w.* ",
"& V < < < < < < < < < < < < < < P P P P P P P P P P P P P P w.* ",
"$ i.R P R P R R P T P T T T T R > < < < > > > > > > : : : : 2 * ",
"$ a.Q Q Q Q Q ( Q ( ( Q Q Q Q Q < < > > > > < > > > : > : : 2 * ",
"$ a.Q Q Q Q ( ( ( ( ( ( ( ( ( Q < < < < < < > > > > > > : : 3 * ",
"$ d.( Q Q ( ( ( ( ( ( ( ( ( ( ( < > < > > > > > > > > > > : 4 & ",
"$ d.( ( ( ( ( ( ( ( ( ( ( ( ( ( > > > > > > > > > > > > : > 4 & ",
"$ d.*.( ( *.( *.*.*.*.*.( ( ( ( < > > > > > > > > > > : > > 3 % ",
"$ d.=.*.*.*.*.*.( *.*.*.*.*.( ( > > > > > > > > > > > > > > 3 % ",
"$ d.=.2.=.*.*.*.2.2.*.#.#.#.*.( > > > > > > > > > > > > > > 3 $ ",
"$ d.*.*.*.*.*.2.2.2.#.#.*.*.*.*.> > > > > > > > > > > > > > 3 $ ",
"% f.*.*.=.=.=.2.2.2.2.#.*.*.*.*.> > > > > > > > > > > > > > 3 $ ",
"% f.f.f.d.d.d.d.d.a.i.w.w.w.w.w.-.-.-.*.-.-.-.*. .*.*.*.-.-.7.# ",
"% N : : : : : : : : : : : : : : 1 1 1 1 1 1 1 1 5 7 7 7 7 7 5.# ",
"% N : : : : : : : : : : : : : : 6 6 6 6 6 6 7 7 5 5 7 7 7 7 5.@ ",
"& N : : : : : : : : : : : : : : 7 7 7 7 7 7 7 7 7 7 7 7 7 7 5.+ ",
"% V : : : : : : : : : : : : : : 7 7 7 7 u u u u 7 u u u 7 7 5.+ ",
"& V : : : : : : : : : : : : : : u u u f f u u u u u u u u 7 9.+ ",
"% V : : : : : , < : : : : : : : f f f f f f f f f f u f u u 9.+ ",
"% V < < < < < : > > > > : : : : f f f f f f f f f f f f f u 9.+ ",
"% T < < > < < < > > > > > : : : c c c c c c c c c c c f f f 9.+ ",
"% I < < < < < < < < < < < > < : m m m m m m c c m c c m c c w.+ ",
"% V < < < < < < < < < < < < < < P P P P P P N P P P P P P P w.+ ",
"% V < < < < < < < < < < < < < < P P P P P P P P P P P P P P w.+ ",
"% i.R P R P R R P T P T T T T T < < < < > > > > : : : : : : 2 + ",
"% a.Q Q Q Q Q ( Q ( ( Q Q Q Q Q < < > > > > > > : > : > : : 2 + ",
"$ a.Q Q Q Q ( ( ( ( ( ( ( ( ( Q < < < < < < > > > > > > : : 3 + ",
"$ d.( Q Q ( ( ( ( ( ( ( ( ( ( ( < < < > > > > > > > > > > : 3 + ",
"+ d.( ( ( ( ( ( ( ( ( ( ( ( ( ( > > > > > > > > > > > > : > 3 + ",
"O d.*.( ( *.( *.*.*.*.*.*.( ( ( < > > > > > > > > > > : > > 3 O ",
"O d.| | *.*.*.*.*.*.( ( *.*.*.( > > > > > > > > > > > > > > 3 O ",
"O d.2.2.*.*.*.*.2.2.*.*.*.*.2.#.> > > > > > > > > > > > > > 3 O ",
"o d.2.=.*.*.*.2.2.2.*.*.#.2.2.2.> > > > > > > > > > > > > > 3 O ",
"o f.=.*.=.=.=.2.2.2.2.*.#.2.2.2.> > > > > > > > > > > > > > 3 O ",
". f.f.f.d.d.d.d.d.a.i.w.w.w.w.w.-.-.-.*.-.-.-.*. .*.*.*.-.-.7.o ",
"  . . . . . . . o . . X o o o o X . . . . . . X X o o o o o o   "
};
