/* XPM */
static char *_4aaf194f30c492a812a01d306ec4fbaYukzBSJEdlkYzYJ5[] = {
/* columns rows colors chars-per-pixel */
"32 46 106 2 ",
"   c None",
".  c #4F2913",
"X  c #522B14",
"o  c #573017",
"O  c #55311A",
"+  c #5B351B",
"@  c #5D391E",
"#  c #60391D",
"$  c #5D3B20",
"%  c #613E24",
"&  c #5B4432",
"*  c #5E4834",
"=  c #624126",
"-  c #684326",
";  c #64452A",
":  c #6A462B",
">  c #664A2D",
",  c #6B4A2D",
"<  c #6B4E31",
"1  c #634E3C",
"2  c #6C5033",
"3  c #64513E",
"4  c #725334",
"5  c #725739",
"6  c #765A3C",
"7  c #795D3D",
"8  c #555E57",
"9  c #675340",
"0  c #695543",
"q  c #6B5846",
"w  c #6E5D4A",
"e  c #705C46",
"r  c #7D5F41",
"t  c #715E48",
"y  c #7E6343",
"u  c #74624D",
"i  c #776654",
"p  c #796651",
"a  c #786551",
"s  c #7C6852",
"d  c #7D6852",
"f  c #786958",
"g  c #7F6F5B",
"h  c #7D6F5D",
"j  c #7E705F",
"k  c #7E7C7F",
"l  c #806544",
"z  c #836A49",
"x  c #866948",
"c  c #846B4A",
"v  c #856C4C",
"b  c #866D4E",
"n  c #886F4F",
"m  c #886F50",
"M  c #887050",
"N  c #897150",
"B  c #897051",
"V  c #8A7052",
"C  c #8A7152",
"Z  c #8B7153",
"A  c #8A7252",
"S  c #8B7252",
"D  c #8B7253",
"F  c #8C7353",
"G  c #8D7453",
"H  c #8C7454",
"J  c #8D7454",
"K  c #8D7556",
"L  c #8C7557",
"P  c #8D7557",
"I  c #8E7557",
"U  c #8E7657",
"Y  c #81705D",
"T  c #83725E",
"R  c #8E7658",
"E  c #8F7858",
"W  c #927957",
"Q  c #907858",
"!  c #917A58",
"~  c #917A59",
"^  c #917A5B",
"/  c #947D5C",
"(  c #957D5D",
")  c #967F5E",
"_  c #857460",
"`  c #857663",
"'  c #857664",
"]  c #867664",
"[  c #817362",
"{  c #8D7C67",
"}  c #408650",
"|  c #408650",
" . c #978164",
".. c #978165",
"X. c #9C8662",
"o. c #9D8663",
"O. c #9D8763",
"+. c #9C8664",
"@. c #9D8765",
"#. c #9C8767",
"$. c #9D8768",
"%. c #9E8768",
"&. c #9E8769",
"*. c #D1AA6C",
"=. c #445DB9",
"-. c #445DB9",
/* pixels */
", ~ v v 2 o                                           , y W Z Z ",
", ~ v v 2 o   } } } } } } }                           : y o.~ E ",
"~ Z Z Z 2 o       k   k     k   k k         }         : y o.~ ~ ",
"8 Z Z 2 < o   } k k k k k k k k k k k k               , y 8 o.~ ",
"..R P 2 2 o }   k k k k k k k k k k }   k             , y y @.( ",
"..P P 2 2 o     k k k k k k k k k k k k       }       , y y %.( ",
" .P P 2 < X     *.k k k k k k k k   *.*.      }       , y y %.( ",
"P P P < < X   *.*.*.*.*.*.*.*.*.*.*.*.*.*.*.          , y y %.( ",
"P P < < < X   } *.          *.        *.      }       , y y y %.",
"P P < < < X     } *.*.*.*.*.*.*.*.*.*.*.        }     , y y y %.",
"Z Z 2 < < X     } *.*.*.*.*.*.*.*.*.*.*.              , y y y @.",
"Z Z < X < X     *.*.*.  *.*.*.*.*.*.*.*.              : 8 , y @.",
"Z n X 0 8 X       *.*.*.*.*.*.*.*.*.*.=.=.      }     : , ' , o.",
"@ + X * X X   =.} =.                      =.    }     = - p : - ",
"_ T 0 X < X   }                           =.    }     % 6 # _ { ",
"u u * X , X   =.=.        =.            =.=.          # l # p d ",
"u u X , , X   =.=.=.      =.      =.=.=.  =.          # y 7 # d ",
"X X < , , X   =.    =.=.  =.    =.      =.  }         # y y 5 @ ",
", , , , > X     =.      =.=.=.=.      =.    }         # y 8 y x ",
"y y > > > X   } =.        =.          =.  }           # y y 8 P ",
"y y > > X 9 X   =.          =.        =.=.}         # ' @ y y P ",
"y y > > X & X   =.          =.            }         @ p @ r r G ",
"6 6 ; ; X & X   =.        =.              }         @ u @ 7 7 F ",
"8 6 ; ; X & X   =.        =.            =.}         @ u @ 7 7 Z ",
"8 6 ; ; X & X   =.          =.          =.          + u o 6 6 Z ",
"6 6 ; } ; O   =.              =.        =.            o 6 8 6 m ",
"6 6 ; } = X   =.              =.          =.=.        8 8 8 5 m ",
"6 6 = = = X =.=.              =.            =.        o 5 4 4 v ",
"5 5 = = = X =.=.              =.          =.=.}       X 4 4 4 v ",
"5 5 = = = X =.=.            =.              =.} =.=.  X 4 % 4 x ",
"5 5 % X % X =.  =.          =.              =.    =.  X $ 8 @ z ",
"5 5 X 9 X }   =.=.=.      =.                =.    =.  X @ 8 8 z ",
"@ @ X & X X } =.    =.      =.            =.  =.=.    X : + f X ",
"T g 9 X $ . }   =.=.        =.            =.          X , X q T ",
"t t & X X 1 . }   =.        =.              }       X f X - o e ",
"8 t X $ X & .     =.        =.              }       X 3 X , o 8 ",
". . @ @ . & .     =.=.        =.            } =.    X 3 . , - 8 ",
": , @ . 9 & .   =.  =.        =.              }     . 3 u . , 8 ",
"5 5 @ . & & .   =.=.          =.              =.    . 3 0 8 8 8 ",
"5 5 @ . & .     =.=.=.=.      =.            =.}   8   . 0 . , y ",
"5 5 . 3 & .     =.    =.=.=.=.=.=.        =.          . 0 h . y ",
". . . & & .     =.  =.  } =.      =.=.=.=.  }         . q w . . ",
"i i 9 & .       =.8   8 } 8 8 8 8 8 8 8 8   } 8         . w [ u ",
"q q & & } } } 8 8   8 } }   8 8 8 8         8     8   8 . w h 0 ",
"} q & & . 8 8 8 } } }                   } }   8 8 8 8   . w j 0 ",
"q q & .     8 8 8 8 8 8 8     8 8 8   }           8 8 8 8 . h 0 "
};
